<?xml version="1.0" encoding="utf-8"?>
<!-- Generator: Adobe Illustrator 16.0.0, SVG Export Plug-In . SVG Version: 6.00 Build 0)  -->
<!DOCTYPE svg PUBLIC "-//W3C//DTD SVG 1.1//EN" "http://www.w3.org/Graphics/SVG/1.1/DTD/svg11.dtd">
<svg version="1.1" id="Layer_1" xmlns="http://www.w3.org/2000/svg" xmlns:xlink="http://www.w3.org/1999/xlink" x="0px" y="0px"
	 width="500px" height="500px" viewBox="0 0 500 500" enable-background="new 0 0 500 500" xml:space="preserve">
<g>
	<path fill="#005EA4" stroke="#FFFFFF" stroke-width="0.8698" stroke-miterlimit="10" d="M195.67,117.311
		c30.034-18.704,79.209-18.704,109.25,0l75.032,46.67c30.031,18.69,25.767,33.99-9.477,33.99h-56.086c-35.253,0-92.944,0-128.187,0
		h-56.099c-35.241,0-39.501-15.299-9.457-33.99L195.67,117.311z"/>
	<path fill="#005EA4" stroke="#FFFFFF" stroke-width="0.8698" stroke-miterlimit="10" d="M395.472,363.882H105.147
		c-2.674,0-4.844,1.554-4.844,3.461v27.645c0,1.906,2.169,3.457,4.844,3.457h290.324c2.659,0,4.832-1.551,4.832-3.457v-27.645
		C400.304,365.436,398.131,363.882,395.472,363.882z"/>
	<path fill="#005EA4" stroke="#FFFFFF" stroke-width="0.8698" stroke-miterlimit="10" d="M395.472,163.408H105.147
		c-2.674,0-4.844,1.554-4.844,3.46v27.644c0,1.905,2.169,3.458,4.844,3.458h290.324c2.659,0,4.832-1.552,4.832-3.458v-27.644
		C400.304,164.962,398.131,163.408,395.472,163.408z"/>
	<path fill="#005EA4" stroke="#FFFFFF" stroke-width="0.8698" stroke-miterlimit="10" d="M165.286,354.201
		c0,2.676-2.167,4.843-4.847,4.843h-23.497c-2.67,0-4.843-2.167-4.843-4.843V213.195c0-2.672,2.173-4.852,4.843-4.852h23.497
		c2.68,0,4.847,2.179,4.847,4.852V354.201z"/>
	<path fill="#005EA4" stroke="#FFFFFF" stroke-width="0.8698" stroke-miterlimit="10" d="M216.087,354.201
		c0,2.676-2.167,4.843-4.839,4.843h-23.5c-2.679,0-4.845-2.167-4.845-4.843V213.195c0-2.672,2.167-4.852,4.845-4.852h23.5
		c2.672,0,4.839,2.179,4.839,4.852V354.201z"/>
	<path fill="#005EA4" stroke="#FFFFFF" stroke-width="0.8698" stroke-miterlimit="10" d="M317.692,354.201
		c0,2.676-2.16,4.843-4.826,4.843h-23.499c-2.679,0-4.852-2.167-4.852-4.843V213.195c0-2.672,2.173-4.852,4.852-4.852h23.499
		c2.666,0,4.826,2.179,4.826,4.852V354.201z"/>
	<path fill="#005EA4" stroke="#FFFFFF" stroke-width="0.8698" stroke-miterlimit="10" d="M266.883,354.201
		c0,2.676-2.15,4.843-4.823,4.843h-23.498c-2.679,0-4.855-2.167-4.855-4.843V213.195c0-2.672,2.176-4.852,4.855-4.852h23.498
		c2.673,0,4.823,2.179,4.823,4.852V354.201z"/>
	<path fill="#005EA4" stroke="#FFFFFF" stroke-width="0.8698" stroke-miterlimit="10" d="M368.512,355.577
		c0,2.679-2.167,4.845-4.832,4.845h-23.5c-2.686,0-4.852-2.166-4.852-4.845V214.578c0-2.671,2.166-4.842,4.852-4.842h23.5
		c2.665,0,4.832,2.171,4.832,4.842V355.577z"/>
	<path fill="#005EA4" d="M305.615,389.72c0,1.843-2.177,3.328-4.861,3.328H199.848c-2.671,0-4.844-1.485-4.844-3.328v-1.9
		c0-1.845,2.173-3.32,4.844-3.32h100.906c2.685,0,4.861,1.476,4.861,3.32V389.72z"/>
	<path fill="#005EA4" d="M305.615,375.895c0,1.839-2.177,3.331-4.861,3.331H199.848c-2.671,0-4.844-1.492-4.844-3.331v-1.906
		c0-1.839,2.173-3.324,4.844-3.324h100.906c2.685,0,4.861,1.485,4.861,3.324V375.895z"/>
</g>
</svg>
