<?xml version="1.0" encoding="utf-8"?>
<!-- Generator: Adobe Illustrator 16.0.0, SVG Export Plug-In . SVG Version: 6.00 Build 0)  -->
<!DOCTYPE svg PUBLIC "-//W3C//DTD SVG 1.1//EN" "http://www.w3.org/Graphics/SVG/1.1/DTD/svg11.dtd">
<svg version="1.1" id="Layer_1" xmlns="http://www.w3.org/2000/svg" xmlns:xlink="http://www.w3.org/1999/xlink" x="0px" y="0px"
	 width="500px" height="500px" viewBox="0 0 500 500" enable-background="new 0 0 500 500" xml:space="preserve">
<g>
	<g>
		<path fill-rule="evenodd" clip-rule="evenodd" fill="#005EA4" stroke="#FFFFFF" stroke-miterlimit="10" d="M154.179,319.053
			l-15.557-15.528c-1.356-1.354-3.572-1.354-4.9,0l-2.176,2.165c-1.354,1.325-1.354,3.545,0,4.893l15.559,15.548
			c1.354,1.354,3.556,1.354,4.913,0l2.161-2.174C155.534,322.598,155.534,320.395,154.179,319.053z"/>
		<path fill-rule="evenodd" clip-rule="evenodd" fill="#005EA4" stroke="#FFFFFF" stroke-miterlimit="10" d="M165.604,295.164
			v27.624c0,2.396,1.958,4.354,4.366,4.354h3.858c2.408,0,4.379-1.958,4.379-4.354v-27.624c0-2.394-1.971-4.339-4.379-4.339h-3.858
			C167.562,290.825,165.604,292.771,165.604,295.164z"/>
		<path fill-rule="evenodd" clip-rule="evenodd" fill="#005EA4" stroke="#FFFFFF" stroke-miterlimit="10" d="M205.165,303.524
			l-15.544,15.528c-1.382,1.342-1.382,3.545,0,4.903l2.174,2.174c1.356,1.354,3.543,1.354,4.885,0l15.586-15.548
			c1.342-1.348,1.342-3.567,0-4.893l-2.19-2.165C208.723,302.17,206.517,302.17,205.165,303.524z"/>
		<path fill-rule="evenodd" clip-rule="evenodd" fill="#005EA4" stroke="#FFFFFF" stroke-miterlimit="10" d="M209.008,336.175
			h-70.046c-18.459,0-34.016,12.041-38.093,28.092h146.223C243.012,348.216,227.453,336.175,209.008,336.175z"/>
		<path fill-rule="evenodd" clip-rule="evenodd" fill="#005EA4" stroke="#FFFFFF" stroke-miterlimit="10" d="M379.998,177.717
			h-107.06v8.925h-64.312v-24.029h-72.591v77.281h72.591v-24.039h64.312v8.908h107.06c11.479,0,20.869-10.565,20.869-23.523
			C400.867,188.295,391.478,177.717,379.998,177.717z"/>
		<g>
			<path fill-rule="evenodd" clip-rule="evenodd" fill="#005EA4" stroke="#FFFFFF" stroke-miterlimit="10" d="M225.224,154.373
				c0,6.856-5.57,12.412-12.409,12.412h-82.992c-6.841,0-12.412-5.556-12.412-12.412v-6.198c0-6.869,5.571-12.412,12.412-12.412
				h82.992c6.839,0,12.409,5.543,12.409,12.412V154.373z"/>
			<path fill-rule="evenodd" clip-rule="evenodd" fill="#005EA4" stroke="#FFFFFF" stroke-miterlimit="10" d="M225.224,254.347
				c0,6.857-5.57,12.399-12.409,12.399h-82.992c-6.841,0-12.412-5.542-12.412-12.399v-6.226c0-6.857,5.571-12.396,12.412-12.396
				h82.992c6.839,0,12.409,5.539,12.409,12.396V254.347z"/>
		</g>
	</g>
</g>
</svg>
