<?xml version="1.0" encoding="utf-8"?>
<!-- Generator: Adobe Illustrator 16.0.0, SVG Export Plug-In . SVG Version: 6.00 Build 0)  -->
<!DOCTYPE svg PUBLIC "-//W3C//DTD SVG 1.1//EN" "http://www.w3.org/Graphics/SVG/1.1/DTD/svg11.dtd">
<svg version="1.1" id="Layer_1" xmlns="http://www.w3.org/2000/svg" xmlns:xlink="http://www.w3.org/1999/xlink" x="0px" y="0px"
	 width="500px" height="500px" viewBox="0 0 500 500" enable-background="new 0 0 500 500" xml:space="preserve">
<g>
	<path fill="#005EA4" stroke="#FFFFFF" stroke-width="0.7792" stroke-miterlimit="10" d="M149.598,438.407
		c-14.834-5.527-26.767-14.771-35.793-27.768c-9.02-13.011-13.527-27.563-13.527-43.704V220.451c0-7.095,2.55-13.192,7.675-18.314
		c5.1-5.125,11.207-7.675,18.302-7.675c6.687,0,12.596,2.55,17.721,7.694c5.106,5.135,7.668,11.251,7.668,18.343v10.068h11.302
		v-21.304c0-7.098,2.46-13.116,7.395-18.043c4.902-4.943,10.907-7.401,18.001-7.401c7.083,0,13.177,2.359,18.302,7.095
		c5.112,4.736,7.675,10.849,7.675,18.349v21.304h11.302v-36.683c0-7.111,2.358-13.227,7.076-18.352
		c4.724-5.135,10.837-7.685,18.314-7.685c7.082,0,13.183,2.55,18.308,7.685c5.105,5.125,7.675,11.241,7.675,18.352v36.683h11.296
		V71.978c0-7.117,2.556-13.227,7.675-18.353c5.1-5.134,11.206-7.685,18.302-7.685c6.699,0,12.596,2.55,17.728,7.685
		c5.1,5.125,7.669,11.235,7.669,18.353v232.563h9.249v-93.493c0-6.715,2.55-12.637,7.669-17.753
		c5.105-5.147,11.206-7.694,18.301-7.694c7.082,0,13.081,2.458,18.015,7.382c4.908,4.918,7.382,10.936,7.382,18.034v156.021
		c0,17.32-5.266,32.88-15.765,46.662c-10.518,13.795-23.758,23.051-39.72,27.793v36.985H149.598V438.407z"/>
	<path fill="#005EA4" d="M276.343,233.768c0,13.488-10.933,24.418-24.414,24.418l0,0c-13.495,0-24.428-10.93-24.428-24.418V45.577
		c0-13.488,10.933-24.421,24.428-24.421l0,0c13.481,0,24.414,10.933,24.414,24.421V233.768z"/>
	<path fill="#005EA4" d="M211.756,243.186c0,13.485-10.933,24.421-24.415,24.421l0,0c-13.495,0-24.427-10.936-24.427-24.421V54.996
		c0-13.489,10.932-24.421,24.427-24.421l0,0c13.482,0,24.415,10.933,24.415,24.421V243.186z"/>
	<path fill="#005EA4" d="M149.77,294.584c0,13.488-10.607,24.421-23.682,24.421l0,0c-13.087,0-23.688-10.933-23.688-24.421V106.397
		c0-13.488,10.601-24.421,23.688-24.421l0,0c13.074,0,23.682,10.933,23.682,24.421V294.584z"/>
</g>
</svg>
