<?xml version="1.0" encoding="utf-8"?>
<!-- Generator: Adobe Illustrator 16.0.0, SVG Export Plug-In . SVG Version: 6.00 Build 0)  -->
<!DOCTYPE svg PUBLIC "-//W3C//DTD SVG 1.1//EN" "http://www.w3.org/Graphics/SVG/1.1/DTD/svg11.dtd">
<svg version="1.1" id="Layer_1" xmlns="http://www.w3.org/2000/svg" xmlns:xlink="http://www.w3.org/1999/xlink" x="0px" y="0px"
	 width="500px" height="500px" viewBox="0 0 500 500" enable-background="new 0 0 500 500" xml:space="preserve">
<g>
	<path fill="#005EA4" d="M400.867,276.135c0,4.637-5.422,8.385-12.104,8.385H185.052c-6.671,0-12.078-3.748-12.078-8.385l0,0
		c0-4.619,5.407-8.373,12.078-8.373h203.713C395.445,267.762,400.867,271.516,400.867,276.135L400.867,276.135z"/>
	<path fill="#005EA4" d="M381.176,415.784c0,6.204-10.079,11.243-22.498,11.243h-90.047c-12.438,0-22.503-5.039-22.503-11.243
		v-128.39c0-6.229,10.063-11.261,22.503-11.261h90.047c12.419,0,22.498,5.031,22.498,11.261V415.784z"/>
</g>
<path fill="#005EA4" stroke="#FFFFFF" stroke-width="0.7032" stroke-miterlimit="10" d="M375.253,265.014v-73.946
	c0-15.102-12.248-27.318-27.381-27.318h-80.587c-15.1,0-27.364,12.217-27.364,27.318v73.946H375.253L375.253,265.014z"/>
<path fill="#005EA4" stroke="#FFFFFF" stroke-width="0.7032" stroke-miterlimit="10" d="M347.872,163.75h-11.746l-28.533,49.285
	l-28.52-49.285h-11.788c-15.1,0-27.364,12.217-27.364,27.318v73.946h135.332v-73.946C375.253,175.966,363.005,163.75,347.872,163.75
	z"/>
<g>
	<g>
		<polygon fill="#005EA4" points="313.864,195.883 313.864,195.673 307.508,165.013 301.311,195.673 301.311,195.883 		"/>
		<polygon fill="#005EA4" points="301.311,195.883 301.311,195.934 307.618,200.587 313.864,195.934 313.864,195.883 		"/>
	</g>
	<polygon fill="#005EA4" points="310.091,166.273 307.593,168.746 305.08,166.273 307.593,163.75 	"/>
</g>
<rect x="254.732" y="211.714" fill="#FFFFFF" stroke="#929497" stroke-width="0.3516" stroke-miterlimit="10" width="34.216" height="18.205"/>
<path fill="#005EA4" stroke="#FFFFFF" stroke-width="0.7032" stroke-miterlimit="10" d="M307.584,75.44
	c21.431,0,38.789,17.333,38.789,38.701c0,21.376-17.358,38.689-38.789,38.689c-21.424,0-38.779-17.313-38.779-38.689
	C268.805,92.773,286.16,75.44,307.584,75.44"/>
<g>
	<path fill="#005EA4" d="M366.329,259.18c-0.304,0.914-1.499,1.649-2.672,1.641l-54.421-0.312c-1.176-0.006-1.879-0.752-1.575-1.664
		l20.979-63.338c0.302-0.917,1.499-1.652,2.675-1.644l54.419,0.31c1.172,0.009,1.882,0.752,1.577,1.667L366.329,259.18z"/>
	<line fill="none" x1="333.058" y1="201.99" x2="376.953" y2="202.223"/>
	<line fill="none" x1="331.178" y1="207.504" x2="375.071" y2="207.736"/>
	<line fill="none" x1="329.298" y1="213.018" x2="373.191" y2="213.25"/>
	<line fill="none" x1="327.416" y1="218.531" x2="371.312" y2="218.767"/>
	<line fill="none" x1="325.536" y1="224.047" x2="369.436" y2="224.28"/>
	<line fill="none" x1="323.656" y1="229.561" x2="367.553" y2="229.794"/>
	<line fill="none" x1="321.774" y1="235.078" x2="365.674" y2="235.313"/>
	<line fill="none" x1="319.9" y1="240.591" x2="363.794" y2="240.827"/>
	<line fill="none" x1="318.021" y1="246.105" x2="361.914" y2="246.338"/>
	<line fill="none" x1="316.139" y1="251.618" x2="360.035" y2="251.854"/>
</g>
<g>
	<path fill="#005EA4" stroke="#FFFFFF" stroke-width="0.7032" stroke-miterlimit="10" d="M236.202,402.021v-73.943
		c0-15.104-12.251-27.318-27.381-27.318h-80.587c-15.1,0-27.365,12.215-27.365,27.318v73.943H236.202z"/>
	<path fill="#005EA4" stroke="#FFFFFF" stroke-width="0.7032" stroke-miterlimit="10" d="M207.322,251.146
		c0,21.377-17.362,38.688-38.789,38.688c-21.425,0-38.781-17.311-38.781-38.688c0-21.364,17.356-38.701,38.781-38.701
		C189.96,212.447,207.322,229.783,207.322,251.146z"/>
</g>
</svg>
