<?xml version="1.0" encoding="utf-8"?>
<!-- Generator: Adobe Illustrator 16.0.0, SVG Export Plug-In . SVG Version: 6.00 Build 0)  -->
<!DOCTYPE svg PUBLIC "-//W3C//DTD SVG 1.1//EN" "http://www.w3.org/Graphics/SVG/1.1/DTD/svg11.dtd">
<svg version="1.1" id="Layer_1" xmlns="http://www.w3.org/2000/svg" xmlns:xlink="http://www.w3.org/1999/xlink" x="0px" y="0px"
	 width="216px" height="144px" viewBox="0 0 216 144" enable-background="new 0 0 216 144" xml:space="preserve">
<g>
	<g>
		<path fill="#FFFFFF" d="M71.672,61.535h8.22c2.095-10.647,9.887-19.229,20.061-22.499l-0.96-8.135
			C84.808,34.8,73.959,46.752,71.672,61.535z"/>
		<path fill="#FFFFFF" d="M118.164,30.666l-0.952,8.079c10.622,3.036,18.815,11.825,20.972,22.791h8.221
			C144.069,46.435,132.798,34.293,118.164,30.666z"/>
		<path fill="#FFFFFF" d="M109.039,45.604c-9.955,0-18.356,6.762-20.864,15.931h1.341c2.471-8.449,10.286-14.64,19.523-14.64
			c9.236,0,17.05,6.191,19.521,14.64h1.343C127.394,52.366,118.993,45.604,109.039,45.604z"/>
	</g>
	<polygon fill="#FFFFFF" points="100.643,25.618 116.486,25.618 114.552,42.024 102.579,42.024 	"/>
	<g>
		<path fill="#FFFFFF" d="M11.374,106.343v-0.523c1.121-0.119,1.21-0.224,1.195-1.599l-0.03-5.754h-0.075l-3.303,7.771H8.743
			l-3.048-7.622H5.634l-0.179,3.9c-0.06,1.24-0.06,1.943,0,2.405c0.059,0.674,0.358,0.808,1.344,0.897v0.523H3.213v-0.523
			c0.837-0.074,1.122-0.344,1.21-0.866c0.09-0.479,0.21-1.256,0.314-2.81l0.239-2.96c0.119-1.703,0.014-1.913-1.271-2.032v-0.523
			h3.093l2.885,6.547l2.93-6.547h3.004v0.523c-1.196,0.119-1.255,0.238-1.226,1.479l0.134,5.59c0.031,1.375,0.105,1.479,1.271,1.599
			v0.523H11.374z"/>
		<path fill="#FFFFFF" d="M27.186,97.151c-0.822,0.044-1.195,0.358-1.27,0.881c-0.075,0.464-0.135,1.018-0.135,2.079v1.629
			c0,1.584-0.239,2.84-1.075,3.735c-0.688,0.718-1.704,1.091-2.765,1.091c-0.986,0-1.929-0.208-2.646-0.776
			c-0.852-0.658-1.24-1.764-1.24-3.513v-3.512c0-1.405-0.149-1.51-1.256-1.614v-0.523h4.5v0.523
			c-1.092,0.104-1.241,0.209-1.241,1.614v3.242c0,2.242,0.808,3.543,2.421,3.543c1.779,0,2.556-1.346,2.556-3.842v-1.598
			c0-1.062-0.075-1.63-0.149-2.079c-0.075-0.522-0.434-0.821-1.45-0.881v-0.523h3.751V97.151z"/>
		<path fill="#FFFFFF" d="M37.184,106.477c-0.089,0-0.27-0.014-0.448-0.014c-1.883-0.091-2.466-0.509-3.064-1.45
			c-0.389-0.613-0.792-1.42-1.226-2.197c-0.239-0.464-0.508-0.643-0.987-0.658h-0.283v2.183c0,1.227,0.149,1.376,1.27,1.479v0.523
			h-4.514v-0.523c1.122-0.104,1.286-0.253,1.286-1.479v-5.739c0-1.195-0.134-1.345-1.225-1.449v-0.523h4.2
			c1.301,0,2.063,0.15,2.661,0.567c0.598,0.389,1.016,1.062,1.016,1.988c0,1.315-0.867,2.019-1.869,2.437
			c0.21,0.433,0.778,1.435,1.21,2.122c0.538,0.822,0.853,1.3,1.151,1.614c0.328,0.344,0.568,0.522,0.912,0.643L37.184,106.477z
			 M31.565,101.575c0.627,0,1.136-0.104,1.464-0.403c0.507-0.418,0.717-1.017,0.717-1.779c0-1.584-0.927-2.166-1.763-2.166
			c-0.375,0-0.583,0.059-0.674,0.149c-0.104,0.089-0.134,0.238-0.134,0.552v3.647H31.565z"/>
		<path fill="#FFFFFF" d="M42.161,96.628c1.181,0,2.032,0.164,2.616,0.583c0.702,0.478,1.106,1.226,1.106,2.197
			c0,2.002-1.479,2.914-3.049,3.108c-0.224,0.029-0.463,0.029-0.627,0.029l-1.017-0.238v2.047c0,1.271,0.135,1.375,1.42,1.479v0.509
			h-4.648v-0.509c1.121-0.104,1.255-0.209,1.255-1.479v-5.724c0-1.271-0.134-1.36-1.166-1.479v-0.523H42.161z M41.189,101.709
			c0.18,0.075,0.493,0.149,0.808,0.149c0.554,0,1.749-0.388,1.749-2.405c0-1.689-0.957-2.242-1.869-2.242
			c-0.283,0-0.462,0.074-0.552,0.149c-0.09,0.09-0.135,0.239-0.135,0.464V101.709z"/>
		<path fill="#FFFFFF" d="M57.584,97.151c-1.166,0.104-1.254,0.193-1.254,1.465v5.754c0,1.255,0.119,1.346,1.254,1.449v0.523h-4.558
			v-0.523c1.195-0.104,1.299-0.209,1.299-1.465v-2.779h-4.08v2.779c0,1.271,0.12,1.361,1.226,1.465v0.523h-4.455v-0.523
			c1.092-0.104,1.226-0.194,1.226-1.465v-5.738c0-1.271-0.134-1.36-1.285-1.465v-0.523h4.484v0.523
			c-1.077,0.104-1.196,0.193-1.196,1.465v2.196h4.08v-2.196c0-1.271-0.118-1.36-1.225-1.465v-0.523h4.483V97.151z"/>
		<path fill="#FFFFFF" d="M67.942,97.151c-0.957,0.104-1.256,0.374-1.794,1.255c-0.553,0.882-0.941,1.524-1.674,2.93
			c-0.208,0.404-0.268,0.567-0.268,1.031v1.912c0,1.346,0.118,1.437,1.449,1.555v0.509h-4.858v-0.509
			c1.271-0.104,1.405-0.209,1.405-1.555v-1.658c0-0.374-0.06-0.523-0.194-0.807c-0.403-0.822-0.956-1.823-1.854-3.393
			c-0.552-0.987-0.806-1.151-1.629-1.271v-0.523h4.275v0.523c-0.986,0.134-0.972,0.329-0.703,0.867
			c0.523,1.031,1.122,2.137,1.704,3.242c0.434-0.851,1.196-2.256,1.554-3.168c0.239-0.598,0.224-0.792-0.882-0.941v-0.523h3.468
			V97.151z"/>
		<path fill="#FFFFFF" d="M82.559,100.484c-0.927,0.104-1.24,0.299-1.779,1.001c-0.418,0.522-0.792,1.091-1.255,1.749
			c0.957,0.927,1.883,2.077,2.586,3.138l-0.09,0.18c-1.479,0-2.376-0.343-2.57-0.537c-0.194-0.195-0.627-0.703-1.181-1.242
			c-0.926,1.211-1.883,1.779-2.884,1.779c-2.032,0-3.123-1.494-3.123-2.779c0-1.256,0.762-1.794,2.092-2.72
			c-0.599-0.584-1.001-1.242-1.001-2.123c0-1.33,1.24-2.495,2.72-2.495c1.495,0,2.541,0.926,2.541,2.166
			c0,0.523-0.239,0.897-0.643,1.226c-0.298,0.27-0.717,0.568-1.195,0.883c0.433,0.373,1.285,1.12,2.331,2.092
			c0.253-0.389,0.493-0.807,0.732-1.286c0.299-0.672,0.194-0.881-0.823-1.03v-0.509h3.543V100.484z M76.117,105.191
			c0.658,0,1.375-0.403,1.763-0.866c-1.105-1.121-1.868-1.779-3.139-2.885c-0.403,0.434-0.627,1.061-0.627,1.645
			c0,1.435,0.986,2.106,1.987,2.106H76.117z M75.922,97.002c-0.568,0-1,0.628-1,1.329c0,0.733,0.403,1.241,1.419,2.033
			c0.389-0.329,0.747-0.927,0.747-1.839c0-0.776-0.388-1.523-1.15-1.523H75.922z"/>
		<path fill="#FFFFFF" d="M97.25,102.218c-0.747,0.149-0.837,0.209-0.837,1.211v1.181c0,0.538,0.016,1.016,0.09,1.405
			c-0.896,0.224-2.197,0.552-3.408,0.552c-3.467,0-5.695-1.973-5.695-4.962c0-3.407,2.765-5.201,5.919-5.201
			c1.21,0,2.376,0.299,2.914,0.419c0.045,0.522,0.12,1.301,0.24,2.481l-0.554,0.104c-0.374-1.659-1.494-2.376-2.899-2.376
			c-1.794,0-3.348,1.613-3.348,4.304c0,2.257,1.106,4.604,3.558,4.604c0.299,0,0.643-0.045,0.836-0.18
			c0.224-0.135,0.344-0.374,0.344-0.822v-1.419c0-1.047-0.075-1.167-1.644-1.301v-0.509h4.483V102.218z"/>
		<path fill="#FFFFFF" d="M107.533,106.477c-0.09,0-0.269-0.014-0.448-0.014c-1.884-0.091-2.466-0.509-3.065-1.45
			c-0.388-0.613-0.792-1.42-1.225-2.197c-0.24-0.464-0.509-0.643-0.986-0.658h-0.285v2.183c0,1.227,0.149,1.376,1.271,1.479v0.523
			h-4.514v-0.523c1.12-0.104,1.285-0.253,1.285-1.479v-5.739c0-1.195-0.134-1.345-1.226-1.449v-0.523h4.2
			c1.301,0,2.063,0.15,2.661,0.567c0.598,0.389,1.016,1.062,1.016,1.988c0,1.315-0.867,2.019-1.868,2.437
			c0.209,0.433,0.777,1.435,1.21,2.122c0.539,0.822,0.852,1.3,1.15,1.614c0.33,0.344,0.568,0.522,0.912,0.643L107.533,106.477z
			 M101.913,101.575c0.627,0,1.136-0.104,1.464-0.403c0.509-0.418,0.717-1.017,0.717-1.779c0-1.584-0.926-2.166-1.763-2.166
			c-0.373,0-0.583,0.059-0.672,0.149c-0.104,0.089-0.135,0.238-0.135,0.552v3.647H101.913z"/>
		<path fill="#FFFFFF" d="M113.883,106.343v-0.523c0.882-0.135,0.957-0.313,0.718-0.972c-0.149-0.448-0.374-1.075-0.598-1.688
			h-2.869c-0.165,0.464-0.358,1.002-0.538,1.6c-0.209,0.717-0.18,0.926,0.911,1.061v0.523h-3.347l0.014-0.523
			c0.986-0.119,1.166-0.284,1.659-1.54l3.063-7.682l0.763-0.194c0.956,2.615,1.883,5.217,2.854,7.787
			c0.508,1.315,0.702,1.51,1.644,1.629v0.523H113.883z M112.613,99.139h-0.045c-0.419,1.091-0.792,2.167-1.181,3.229h2.332
			L112.613,99.139z"/>
		<path fill="#FFFFFF" d="M129.411,97.151c-0.806,0.044-1.12,0.238-1.195,0.926c-0.045,0.464-0.135,1.166-0.135,2.482v5.933h-0.718
			l-6.216-7.442h-0.045v3.362c0,1.315,0.074,1.973,0.119,2.421c0.075,0.657,0.329,0.941,1.435,0.986v0.523h-3.662v-0.523
			c0.837-0.06,1.181-0.298,1.241-0.94c0.06-0.494,0.149-1.151,0.149-2.467v-3.124c0-0.971-0.03-1.256-0.313-1.6
			c-0.27-0.357-0.613-0.478-1.24-0.537v-0.523h2.765l5.709,6.561h0.059v-2.629c0-1.316-0.089-2.019-0.118-2.452
			c-0.074-0.643-0.389-0.896-1.479-0.956v-0.523h3.646V97.151z"/>
		<path fill="#FFFFFF" d="M138.469,99.184c-0.18-0.777-0.39-1.27-0.657-1.539c-0.255-0.269-0.644-0.359-1.511-0.359h-0.687v7.069
			c0,1.271,0.149,1.361,1.465,1.465v0.523h-4.873v-0.523c1.256-0.104,1.405-0.194,1.405-1.465v-7.069h-0.508
			c-1.226,0-1.495,0.165-1.72,0.403c-0.239,0.255-0.433,0.763-0.627,1.511h-0.538c0.06-1.092,0.149-2.183,0.179-2.945h0.359
			c0.238,0.344,0.433,0.374,0.852,0.374h6.009c0.403,0,0.611-0.089,0.866-0.374h0.358c0.016,0.629,0.09,1.943,0.165,2.9
			L138.469,99.184z"/>
		<path fill="#FFFFFF" d="M147.72,103.817c-0.119,0.627-0.434,2.122-0.554,2.525h-7.277v-0.523c1.3-0.104,1.449-0.209,1.449-1.465
			v-5.724c0-1.286-0.149-1.375-1.285-1.479v-0.523h4.572v0.523c-1.149,0.104-1.285,0.193-1.285,1.479v5.829
			c0,0.702,0.061,0.971,0.375,1.106c0.254,0.104,0.657,0.134,1.12,0.134c0.628,0,1.166-0.104,1.525-0.509
			c0.283-0.312,0.552-0.792,0.837-1.539L147.72,103.817z"/>
		<path fill="#FFFFFF" d="M154.252,106.343v-0.523c0.882-0.135,0.957-0.313,0.717-0.972c-0.149-0.448-0.373-1.075-0.598-1.688h-2.87
			c-0.163,0.464-0.358,1.002-0.537,1.6c-0.21,0.717-0.18,0.926,0.912,1.061v0.523h-3.349l0.016-0.523
			c0.985-0.119,1.165-0.284,1.658-1.54l3.064-7.682l0.762-0.194c0.956,2.615,1.883,5.217,2.854,7.787
			c0.508,1.315,0.703,1.51,1.645,1.629v0.523H154.252z M152.98,99.139h-0.044c-0.418,1.091-0.793,2.167-1.181,3.229h2.331
			L152.98,99.139z"/>
		<path fill="#FFFFFF" d="M169.779,97.151c-0.807,0.044-1.121,0.238-1.195,0.926c-0.045,0.464-0.136,1.166-0.136,2.482v5.933h-0.717
			l-6.217-7.442h-0.045v3.362c0,1.315,0.075,1.973,0.12,2.421c0.074,0.657,0.328,0.941,1.435,0.986v0.523h-3.663v-0.523
			c0.838-0.06,1.182-0.298,1.242-0.94c0.059-0.494,0.149-1.151,0.149-2.467v-3.124c0-0.971-0.031-1.256-0.314-1.6
			c-0.27-0.357-0.613-0.478-1.24-0.537v-0.523h2.765l5.709,6.561h0.06v-2.629c0-1.316-0.089-2.019-0.119-2.452
			c-0.074-0.643-0.389-0.896-1.479-0.956v-0.523h3.646V97.151z"/>
		<path fill="#FFFFFF" d="M175.279,96.628c1.868,0,3.317,0.374,4.289,1.3c0.733,0.703,1.315,1.765,1.315,3.169
			c0,1.823-0.733,3.124-1.869,4.006c-1.104,0.837-2.659,1.24-4.527,1.24h-3.842v-0.523c1.181-0.104,1.33-0.209,1.33-1.479v-5.709
			c0-1.286-0.134-1.375-1.195-1.479v-0.523H175.279z M173.979,104.25c0,1.076,0.224,1.45,1.271,1.45
			c2.003,0,3.378-1.645,3.378-4.304c0-1.421-0.434-2.557-1.105-3.229c-0.629-0.613-1.421-0.928-2.437-0.928
			c-0.539,0-0.852,0.12-0.941,0.21c-0.135,0.134-0.165,0.388-0.165,0.822V104.25z"/>
		<path fill="#FFFFFF" d="M182.692,103.938c0.732,0,1.719,0.746,1.719,1.896c0,1.391-1.3,2.197-2.525,2.497l-0.194-0.524
			c0.911-0.373,1.346-0.821,1.346-1.448c0-0.509-0.374-0.957-1.093-1.106c-0.059-0.029-0.208-0.21-0.208-0.538
			c0-0.464,0.448-0.776,0.941-0.776H182.692z"/>
		<path fill="#FFFFFF" d="M193.26,96.628c1.18,0,2.031,0.164,2.614,0.583c0.703,0.478,1.105,1.226,1.105,2.197
			c0,2.002-1.479,2.914-3.048,3.108c-0.225,0.029-0.464,0.029-0.629,0.029l-1.016-0.238v2.047c0,1.271,0.135,1.375,1.42,1.479v0.509
			h-4.648v-0.509c1.122-0.104,1.256-0.209,1.256-1.479v-5.724c0-1.271-0.134-1.36-1.166-1.479v-0.523H193.26z M192.287,101.709
			c0.179,0.075,0.493,0.149,0.808,0.149c0.553,0,1.749-0.388,1.749-2.405c0-1.689-0.957-2.242-1.869-2.242
			c-0.283,0-0.464,0.074-0.553,0.149c-0.09,0.09-0.135,0.239-0.135,0.464V101.709z"/>
		<path fill="#FFFFFF" d="M197.25,106.521c-0.599,0-1.076-0.463-1.076-1.136c0-0.656,0.478-1.136,1.091-1.136
			c0.643,0,1.121,0.479,1.121,1.136c0,0.673-0.479,1.136-1.121,1.136H197.25z"/>
		<path fill="#FFFFFF" d="M205.319,106.343v-0.523c0.883-0.135,0.957-0.313,0.718-0.972c-0.149-0.448-0.374-1.075-0.598-1.688h-2.87
			c-0.164,0.464-0.358,1.002-0.537,1.6c-0.21,0.717-0.181,0.926,0.911,1.061v0.523h-3.348l0.015-0.523
			c0.985-0.119,1.166-0.284,1.659-1.54l3.063-7.682l0.763-0.194c0.955,2.615,1.883,5.217,2.854,7.787
			c0.509,1.315,0.703,1.51,1.645,1.629v0.523H205.319z M204.049,99.139h-0.044c-0.419,1.091-0.793,2.167-1.181,3.229h2.331
			L204.049,99.139z"/>
		<path fill="#FFFFFF" d="M211.896,106.521c-0.599,0-1.076-0.463-1.076-1.136c0-0.656,0.478-1.136,1.09-1.136
			c0.644,0,1.122,0.479,1.122,1.136c0,0.673-0.479,1.136-1.122,1.136H211.896z"/>
	</g>
	<g>
		<path fill="#FFFFFF" d="M83.316,88.567v-1.16c2.745-0.247,2.885-0.493,2.851-3.907l-0.07-13.831h-0.141l-8.094,18.652h-0.88
			l-7.424-18.264H69.45l-0.458,9.466c-0.14,2.92-0.14,4.54-0.034,5.771c0.105,1.583,0.845,1.899,3.202,2.112v1.16h-8.375v-1.16
			c2.006-0.177,2.675-0.74,2.921-2.078c0.211-1.125,0.456-2.85,0.703-6.544l0.528-7.109c0.282-4.188,0.036-4.575-3.026-4.856v-1.126
			h6.72l7.25,16.189l7.354-16.189h6.687v1.126c-2.921,0.281-3.097,0.493-3.027,3.66L90.249,83.5
			c0.071,3.414,0.211,3.625,3.061,3.907v1.16H83.316z"/>
		<path fill="#FFFFFF" d="M125.017,74.703c-2.287,0.245-2.921,0.773-4.152,2.428c-0.985,1.302-1.865,2.674-2.991,4.327
			c1.97,1.937,4.539,4.928,5.947,7.251l-0.212,0.386c-2.921-0.069-4.962-0.879-5.419-1.337c-0.458-0.458-1.654-1.829-2.886-3.062
			c-2.323,3.062-4.61,4.364-7.003,4.364c-4.645,0-7.214-3.449-7.214-6.476c0-3.062,2.006-4.398,5.067-6.546
			c-1.479-1.407-2.428-2.956-2.428-4.962c0-3.167,2.852-5.806,6.159-5.806c3.307,0,5.701,2.147,5.701,5.032
			c0,1.303-0.635,2.253-1.479,2.991c-0.705,0.599-1.654,1.268-2.851,2.077c1.091,0.914,3.272,2.815,5.666,5.138
			c0.668-1.056,1.267-2.111,1.865-3.413c0.703-1.584,0.422-2.076-2.042-2.393l0.036-1.127h8.234V74.703z M109.742,86.14
			c1.831,0,3.66-1.196,4.646-2.464c-2.321-2.429-4.257-4.188-7.318-6.792c-1.443,1.267-2.112,2.781-2.112,4.294
			c0,3.378,2.428,4.962,4.751,4.962H109.742z M109.531,66.573c-1.441,0-2.532,1.443-2.532,3.273c0,1.76,0.984,2.992,3.272,4.75
			c1.196-0.915,2.076-2.322,2.076-4.399c0-1.899-1.021-3.625-2.78-3.625H109.531z"/>
		<path fill="#FFFFFF" d="M153.556,78.891c-1.9,0.316-2.076,0.492-2.076,2.744v2.851c0,1.267,0.036,2.393,0.247,3.344
			c-2.147,0.492-5.173,1.266-7.989,1.266c-8.023,0-13.231-4.68-13.231-11.719c0-8.093,6.51-12.21,13.759-12.21
			c2.887,0,5.597,0.704,6.827,1.021c0.105,1.196,0.282,3.097,0.563,5.665l-1.196,0.247c-0.88-4.082-3.483-5.559-6.827-5.559
			c-4.646,0-8.411,3.871-8.411,10.275c0,5.244,2.745,10.91,8.904,10.91c0.88,0,1.794-0.142,2.357-0.493
			c0.599-0.353,0.915-0.88,0.915-2.076v-3.202c0-2.499-0.211-2.745-3.801-3.062v-1.127h9.959V78.891z"/>
	</g>
</g>
</svg>
